<?xml version="1.0" standalone="no"?><!DOCTYPE svg PUBLIC "-//W3C//DTD SVG 1.1//EN" "http://www.w3.org/Graphics/SVG/1.1/DTD/svg11.dtd"><svg t="1687331625706" class="icon" viewBox="0 0 1024 1024" version="1.1" xmlns="http://www.w3.org/2000/svg" p-id="3251" xmlns:xlink="http://www.w3.org/1999/xlink" width="128" height="128"><path d="M512 512m-448 0a448 448 0 1 0 896 0 448 448 0 1 0-896 0Z" fill="#8a8a8a" p-id="3252" data-spm-anchor-id="a313x.7781069.0.i7" class="selected"></path><path d="M256 256m64 0l384 0q64 0 64 64l0 384q0 64-64 64l-384 0q-64 0-64-64l0-384q0-64 64-64Z" fill="#E2BF7A" p-id="3253" data-spm-anchor-id="a313x.7781069.0.i5" class=""></path><path d="M332 302h360v420H332z" fill="#FFFFFF" p-id="3254"></path><path d="M322 342h380v360H322z" fill="#E9EBF1" p-id="3255" data-spm-anchor-id="a313x.7781069.0.i4" class=""></path><path d="M302 382h420v300H302z" fill="#FFFFFF" p-id="3256"></path><path d="M282 422h460v300H282z" fill="#E9EBF1" p-id="3257" data-spm-anchor-id="a313x.7781069.0.i2" class=""></path><path d="M768 412.192V704c0 35.346-28.654 64-64 64H320c-35.346 0-64-28.654-64-64V412.187a32 32 0 0 0 15.27 27.278C380.543 506.488 460.787 540 512 540c51.212 0 131.456-33.512 240.73-100.535A32 32 0 0 0 768 412.192z" fill="#FFD786" p-id="3258" data-spm-anchor-id="a313x.7781069.0.i3" class=""></path><path d="M512 604m-32 0a32 32 0 1 0 64 0 32 32 0 1 0-64 0Z" fill="#8a8a8a" p-id="3259" data-spm-anchor-id="a313x.7781069.0.i9" class="selected"></path></svg>